<?xml version="1.0" encoding="UTF-8" standalone="no"?>
<svg
   xmlns:dc="http://purl.org/dc/elements/1.1/"
   xmlns:cc="http://creativecommons.org/ns#"
   xmlns:rdf="http://www.w3.org/1999/02/22-rdf-syntax-ns#"
   xmlns:svg="http://www.w3.org/2000/svg"
   xmlns="http://www.w3.org/2000/svg"
   style="overflow:visible;fill-rule:evenodd;stroke-width:0.50099999;stroke-linejoin:bevel"
   id="svg26"
   viewBox="0 0 39.000001 36.091999"
   height="36.091999pt"
   width="39pt"
   overflow="visible"
   version="1.1">
  <metadata
     id="metadata30">
    <rdf:RDF>
      <cc:Work
         rdf:about="">
        <dc:format>image/svg+xml</dc:format>
        <dc:type
           rdf:resource="http://purl.org/dc/dcmitype/StillImage" />
        <dc:title></dc:title>
      </cc:Work>
    </rdf:RDF>
  </metadata>
  <defs
     id="defs7">
    <linearGradient
       gradientTransform="translate(494.055,777.355)"
       y2="8.9829998"
       x2="10.731"
       y1="0"
       x1="0"
       gradientUnits="userSpaceOnUse"
       id="LinearGradient">
      <stop
         id="stop2"
         stop-color="#ffffff"
         offset="0" />
      <stop
         id="stop4"
         stop-color="#000000"
         offset="1" />
    </linearGradient>
    <mask
       id="TranspMask">
      <rect
         id="rect17"
         height="120.00001%"
         width="120.00001%"
         y="-10%"
         x="-10%"
         style="fill:url(#LinearGradient);stroke:none" />
    </mask>
  </defs>
  <g
     transform="translate(-38.46919,-27.437517)"
     style="opacity:1"
     id="layer1">
    <g
       transform="matrix(0.99999998,0,0,-0.99999998,-447.5998,-26.042482)"
       font-size="16"
       id="Document"
       style="font-size:16px;font-family:'Times New Roman';fill:none;stroke:#000000">
      <g
         transform="translate(0,-841.891)"
         id="Spread">
        <g
           id="Layer 1">
          <g
             id="Group"
             style="stroke:none">
            <path
               id="path9"
               stroke-miterlimit="79.8403193612775"
               d="m 486.069,788.348 38.921,0.063 0.079,-36.029 -38.918,-0.063 z"
               style="fill:#c60000;stroke-width:0.002;stroke-miterlimit:79.84031677;marker-start:none;marker-end:none" />
            <path
               id="path11"
               stroke-miterlimit="79.8403193612775"
               d="m 487.955,786.516 17.608,-11.878 17.62,11.999 0.024,-7.973 -11.983,-8.6 11.963,-7.124 0.063,-7.793 -17.747,10.945 0.032,-11.83 -17.522,-0.024 z"
               style="fill:#141515;stroke-width:0.002;stroke-miterlimit:79.84031677;marker-start:none;marker-end:none" />
            <path
               id="path13"
               stroke-miterlimit="79.8403193612775"
               d="m 487.955,785.866 17.607,-11.876 17.625,11.996 0.024,-7.976 -11.983,-8.6 11.961,-7.12 0.069,-8.002 -17.753,11.152 0.03,-11.178 -17.522,-0.024 z"
               style="fill:#fefefe;stroke-width:0.004;stroke-miterlimit:79.84031677;marker-start:none;marker-end:none" />
            <path
               id="path15"
               d="m 491.942,756.039 -0.008,4.5 1.108,0.002 0.006,-3.158 5.495,0.008 0.003,-1.34 z m 3.343,4.799 c -0.673,-0.002 -1.237,0.099 -1.693,0.3 -0.337,0.15 -0.64,0.356 -0.907,0.618 -0.269,0.26 -0.467,0.545 -0.596,0.855 -0.176,0.415 -0.265,0.892 -0.265,1.432 -0.001,0.979 0.3,1.763 0.901,2.351 0.603,0.589 1.443,0.885 2.516,0.885 1.067,0.003 1.901,-0.287 2.505,-0.868 0.602,-0.583 0.906,-1.361 0.907,-2.338 0.002,-0.986 -0.296,-1.773 -0.895,-2.357 -0.598,-0.584 -1.422,-0.877 -2.473,-0.878 z m -0.048,1.381 c 0.749,10e-4 1.315,0.176 1.7,0.525 0.385,0.347 0.578,0.789 0.576,1.323 0,0.535 -0.192,0.975 -0.576,1.316 -0.385,0.342 -0.959,0.513 -1.724,0.512 -0.756,-0.002 -1.321,-0.17 -1.692,-0.505 -0.373,-0.334 -0.557,-0.778 -0.556,-1.33 0.001,-0.553 0.189,-0.999 0.568,-1.337 0.376,-0.337 0.945,-0.505 1.704,-0.504 z m 0.873,10.417 0.407,1.301 c 0.722,-0.197 1.258,-0.528 1.609,-0.991 0.35,-0.464 0.526,-1.051 0.528,-1.764 10e-4,-0.882 -0.297,-1.607 -0.896,-2.176 -0.598,-0.569 -1.416,-0.855 -2.456,-0.856 -1.098,-0.003 -1.952,0.282 -2.562,0.851 -0.609,0.57 -0.914,1.321 -0.916,2.249 0,0.815 0.237,1.474 0.714,1.983 0.281,0.302 0.685,0.529 1.214,0.681 l 0.318,-1.327 c -0.342,-0.078 -0.612,-0.243 -0.81,-0.493 -0.198,-0.249 -0.296,-0.551 -0.295,-0.909 0.001,-0.492 0.177,-0.891 0.529,-1.198 0.351,-0.304 0.92,-0.458 1.707,-0.456 0.834,0.002 1.429,0.154 1.784,0.455 0.353,0.303 0.53,0.698 0.53,1.18 -0.002,0.358 -0.115,0.663 -0.341,0.919 -0.225,0.257 -0.58,0.439 -1.064,0.551 z m 2.432,3.682 -5.486,-0.01 0.004,-1.971 -1.117,-10e-4 -0.009,5.278 1.117,10e-4 0.003,-1.966 5.486,0.01 z"
               style="fill:#c60000;fill-rule:nonzero;marker-start:none;marker-end:none" />
            <mask
               id="mask3755">
              <rect
                 id="rect3753"
                 height="120.00001%"
                 width="120.00001%"
                 y="-10%"
                 x="-10%"
                 style="fill:url(#LinearGradient);stroke:none" />
            </mask>
            <path
               id="path20"
               mask="url(#TranspMask)"
               stroke-miterlimit="79.8403193612775"
               d="m 490.597,786.502 14.848,-9.608 15.098,9.483 z"
               style="fill:#ffffff;stroke-width:0.006;stroke-linejoin:miter;stroke-miterlimit:79.84031677;marker-start:none;marker-end:none" />
          </g>
        </g>
      </g>
    </g>
  </g>
</svg>
