<svg width="250" height="84" viewBox="0 0 1000 335" xmlns="http://www.w3.org/2000/svg"><path fill="none" d="M0 0h1000v335H0V0z"/><path fill="#c1a168" d="M570.93 39.62c8.01 13.32 14.92 27.27 22.64 40.75.78 1.79 2.62 3.68 1.59 5.74-4.23 11.24-8.65 22.41-12.95 33.63-13.97.03-27.95.09-41.92-.03 10.23-26.69 20.27-53.46 30.64-80.09zm45.74-.01c5.14 7.99 9.1 16.67 13.93 24.84 3.33 6.3 6.87 12.48 10.22 18.76 1.02 1.35 0 2.92-.39 4.28-4.23 10.72-8.27 21.51-12.46 32.25-13.95.01-27.91.09-41.86-.03 10.08-26.74 20.27-53.44 30.56-80.1zm45.92-.16c8.3 15.09 16.72 30.13 24.72 45.38-4.71 11.54-8.95 23.27-13.5 34.87-13.99.13-27.98.09-41.97.01 10.26-26.75 20.2-53.63 30.75-80.26z"/><path fill="#d7b880" d="M872.16 100.12c9.88-1.71 20.23 5.26 22.26 15.08 2.35 9.39-3.3 19.87-12.47 22.99-10.64 4.27-23.85-2.89-26.01-14.16-2.86-10.74 5.26-22.5 16.22-23.91z"/><path fill="#fefefe" d="M870.22 104.27c8.96-3.23 19.62 3.3 20.89 12.72 2.01 9.91-7.16 19.98-17.23 18.76-9.44-.51-16.87-10.45-14.45-19.65 1.19-5.49 5.43-10.14 10.79-11.83z"/><path fill="#d7b880" d="M868.98 109.01c3.91.32 9.03-1.33 11.84 2.3 2.01 3.24.67 7.48-2.48 9.43 1.72 3.17 3.34 6.41 5.05 9.59-1.52 0-3.02 0-4.52.01-1.74-3.3-2.63-7.26-5.48-9.83-.36 3.23-.31 6.49-.27 9.74-1.38.01-2.74.02-4.1.05-.05-7.1 0-14.19-.04-21.29z"/><path fill="#fefefe" d="M873.19 111.81c1.35.5 3.33.14 4.16 1.6.36 1.21.15 2.52-.21 3.7-1.27.59-2.65.83-3.97 1.18-.06-2.16-.06-4.32.02-6.48z"/><path fill="#d7b880" d="M287.78 130.58c14.41-5.63 30.86-5.9 45.44-.69 16.24 5.6 29.95 17.99 37.34 33.48 5.92 12.15 7.68 26.14 5.55 39.45-10.95-.03-21.89-.03-32.83-.01 2.33-7.67 2.49-16.17-.7-23.62-4.48-11.68-16.04-20.15-28.51-20.99-13.81-1.25-27.83 7.07-33.27 19.82-3.61 7.74-3.72 16.75-1.16 24.83-10.97-.12-21.95-.01-32.93-.07-1.94-12.92-.4-26.41 5.09-38.32 7.03-15.36 20.18-27.86 35.98-33.88zm178.58-3.04c13.19-.05 26.38-.02 39.58-.02-16.09 25.23-32.71 50.12-48.89 75.28-12.15.08-24.3.09-36.44-.01-16.21-25.17-32.67-50.17-48.97-75.27 13.25 0 26.5-.01 39.75 0 9.13 15.44 18.29 30.85 27.45 46.27 9.16-15.42 18.24-30.9 27.52-46.25zm70.54-.02c11.6-.02 23.2.01 34.8-.01 9.06 25.08 18.02 50.19 26.95 75.32-11.5.04-23 .02-34.5 0-3.02-12.15-6.2-24.26-9.19-36.42-4.16 12.11-8.22 24.27-12.35 36.39-11.53.13-23.07-.01-34.6.07 9.48-25.17 19.38-50.19 28.89-75.35zm101.13.01c16.67-.03 33.34-.03 50 0 10.39.06 21.19 2.26 29.64 8.6 7.31 5.31 11.68 13.93 12.97 22.75 1.39 9.54.34 19.66-4.27 28.24-4.67 8.5-13.55 14.92-23.32 15.72-21.66.08-43.33-.06-64.99.05-.07-25.12-.02-50.24-.03-75.36zm-510.48 0c18.16-.04 36.31 0 54.46-.02 10.11-.03 20.63 2.5 28.59 8.98 12.41 9.92 14.77 29.31 6.85 42.67-2.38 3.71-6.17 6.08-9.92 8.21 4.8.94 9.63 2.47 13.53 5.53 3.47 2.59 5.89 6.24 8.12 9.88-22.7.11-45.42.13-68.12-.03-.06 9.13-.13 18.27.01 27.41 8.46-.09 17.05.37 25.36-1.49 4.53-1.1 9.49-3.36 11.31-7.99 1.95-4.33.79-9.28-1.43-13.27 11.5.18 23 0 34.5.09 2.84 10.51 2.57 22.75-4.42 31.64-8.72 11.28-23.67 15.36-37.36 15.83-20.49.17-40.98 0-61.48.09-.03-42.51-.02-85.02 0-127.53zm631.26-.01c16.38 0 32.76-.02 49.14.01 14.56.06 29.15 4.92 40.53 14.07 11.75 9.25 20.13 22.77 22.82 37.51 3.06 15.6.05 32.33-8.48 45.77-11.33 18.28-32.34 29.86-53.8 30.13-16.74.08-33.48 0-50.23.04.11-15.84.01-31.68.05-47.52 11.05.04 22.1.01 33.16.02 0 7.12-.01 14.24.01 21.36 10.02.24 20.67.19 29.52-5.23 18.73-10.7 23.54-38.73 10.4-55.54-5.61-7.14-13.99-11.78-22.77-13.75-5.63-1.3-11.44-.91-17.16-.96-.01 16.62 0 33.24 0 49.86-11.06.02-22.12-.05-33.18.04.02-25.27.04-50.54-.01-75.81z"/><path fill="#fefefe" d="M160.94 153.45c8.56.14 17.77-1.17 25.71 2.8 7.63 3.78 6.73 16.48-.94 19.75-7.74 3.5-16.52 2.94-24.8 2.75.08-8.43 0-16.87.03-25.3zm510.12 0c6.62.11 13.61-.17 19.75 2.74 9.44 4.63 8.9 20.54-.45 24.99-5.92 3.09-12.78 3.1-19.28 3.26-.04-10.33-.02-20.66-.02-30.99z"/><path fill="#d7b880" d="M421.89 207.47c11.26.02 22.52 0 33.78.02-.04 15.82-.06 31.65.01 47.48-11.27.12-22.54.12-33.81-.01.07-15.83.01-31.66.02-47.49zm84.17.07c31.46-.13 62.91-.04 94.37-.04 6.07 15.79 11.86 31.7 17.96 47.49-11.67.11-23.34.03-35 .04-2.94-7.38-5.86-14.76-8.71-22.18-14.26.07-28.52.02-42.78.03-2.9 7.34-5.91 14.65-8.7 22.04-11.77.26-23.54.05-35.31.13 6.09-15.82 12.28-31.61 18.17-47.51zm131.97-.06c11.05 0 22.11-.01 33.16.02-.02 15.82-.05 31.64.02 47.45-11.07.2-22.13.04-33.19.09.01-15.85 0-31.7.01-47.56zm34.51.03c11.69-.06 23.37-.01 35.06-.02 12.26 15.74 24.23 31.71 36.48 47.45-13.78.16-27.57.16-41.35 0-10.03-15.83-20.2-31.57-30.19-47.43zm-424.75.09c11.33 0 22.66-.05 33.99.03 4.22 7.48 11.16 13.5 19.4 16.07 9.96 3.2 21.4 1.49 29.84-4.74 4.23-2.93 7.47-7.03 10.14-11.38 11.31.03 22.63-.02 33.94.03-4.06 15.78-13.98 30-27.68 38.87-14.49 9.7-32.96 13-49.95 9.26-23.96-4.9-43.86-24.46-49.68-48.14z"/></svg>